<svg width="133.333" height="133.333" viewBox="0 0 100 100" xmlns="http://www.w3.org/2000/svg" xmlns:xlink="http://www.w3.org/1999/xlink" overflow="hidden"><style>
.MsftOfcThm_Text2_Fill_v2 {
 fill:#E42617; 
}
</style>
<g><path d="M50 30C38.973 30 30 38.9727 30 50 30 61.0273 38.9727 70 50 70 61.0273 70 70 61.0273 70 50 70 38.9727 61.0273 30 50 30ZM50 65C41.7305 65 35 58.2695 35 50 35 41.7305 41.7305 35 50 35 58.2695 35 65 41.7305 65 50 65 58.2695 58.2695 65 50 65Z" class="MsftOfcThm_Text2_Fill_v2" fill="#E42617"/><path d="M87.5 40 83.5391 40C82.8516 37.6914 81.9336 35.4688 80.7891 33.3516L83.5899 30.5508C86.5157 27.625 86.5157 22.8672 83.5899 19.9458L80.0547 16.4106C78.6406 14.9926 76.7539 14.2153 74.75 14.2153 72.7461 14.2153 70.8633 14.9965 69.4453 16.4106L66.6445 19.2075C64.5312 18.063 62.3047 17.1411 60 16.4575L60 12.5005C60 8.3638 56.6367 5.0005 52.5 5.0005L47.5 5.0005C43.3633 5.0005 40 8.3638 40 12.5005L40 16.4614C37.6914 17.1489 35.4688 18.0669 33.3555 19.2114L30.5547 16.4106C29.1367 14.9926 27.2539 14.2153 25.25 14.2153 23.2461 14.2153 21.3633 14.9965 19.9453 16.4106L16.4101 19.9458C13.4843 22.8716 13.4843 27.6294 16.4101 30.5508L19.2109 33.3516C18.0664 35.4649 17.1445 37.6914 16.4609 40L12.5 40C8.3633 40 5 43.3633 5 47.5L5 52.5C5 56.6367 8.3633 60 12.5 60L16.4609 60C17.1484 62.3086 18.0664 64.5312 19.2109 66.6484L16.4101 69.4492C13.4843 72.375 13.4843 77.1328 16.4101 80.0542L19.9453 83.5894C21.3594 85.0074 23.2461 85.7847 25.25 85.7847 27.2539 85.7847 29.1367 85.0034 30.5547 83.5894L33.3555 80.7925C35.4688 81.937 37.6953 82.8589 40 83.5425L40 87.4995C40 91.6362 43.3633 94.9995 47.5 94.9995L52.5 94.9995C56.6367 94.9995 60 91.6362 60 87.4995L60 83.5386C62.3086 82.8511 64.5312 81.9331 66.6445 80.7886L69.4453 83.5894C70.8633 85.0074 72.7461 85.7847 74.75 85.7847 76.7539 85.7847 78.6367 85.0034 80.0547 83.5894L83.5899 80.0542C86.5157 77.1284 86.5157 72.3706 83.5899 69.4492L80.7891 66.6484C81.9336 64.5351 82.8555 62.3086 83.5391 60L87.5 60C91.6367 60 95 56.6367 95 52.5L95 47.5C95 43.3633 91.6367 40 87.5 40ZM90 52.5C90 53.8789 88.8789 55 87.5 55L81.6211 55C80.4609 55 79.4531 55.7969 79.1875 56.9258 78.4492 60.0508 77.2187 63.0196 75.5391 65.7422 74.9297 66.7266 75.0782 68.0039 75.8985 68.8242L80.0547 72.9804C81.0312 73.957 81.0312 75.5429 80.0547 76.5156L76.5195 80.0508C75.5742 80.9961 73.9297 80.9922 72.9843 80.0508L68.8281 75.8946C68.0078 75.0743 66.7343 74.9258 65.7461 75.5352 63.0234 77.2188 60.0586 78.4454 56.9297 79.1836 55.7969 79.4531 55 80.4609 55 81.6211L55 87.5C55 88.8789 53.8789 90 52.5 90L47.5 90C46.1211 90 45 88.8789 45 87.5L45 81.6211C45 80.4609 44.2031 79.4531 43.0742 79.1875 39.9453 78.4492 36.9804 77.2187 34.2578 75.5391 33.8515 75.2891 33.3984 75.1641 32.9453 75.1641 32.3008 75.1641 31.6601 75.4141 31.1758 75.8946L27.0196 80.0508C26.0743 80.9961 24.4298 80.9961 23.4844 80.0508L19.9492 76.5156C18.9726 75.539 18.9726 73.9531 19.9492 72.9804L24.1054 68.8242C24.9257 68.0039 25.0741 66.7304 24.4648 65.7422 22.7812 63.0156 21.5546 60.0508 20.8164 56.9258 20.5468 55.7969 19.5391 55 18.3789 55L12.5 55C11.1211 55 9.99996 53.8789 9.99996 52.5L9.99996 47.5C9.99996 46.1211 11.1211 45 12.5 45L18.3789 45C19.5391 45 20.543 44.2031 20.8125 43.0742 21.5507 39.9492 22.7813 36.9804 24.4609 34.2578 25.0702 33.2734 24.9218 31.9961 24.1015 31.1758L19.9453 27.0196C18.9726 26.043 18.9726 24.4571 19.9453 23.4844L23.4805 19.9492C24.4258 19.0039 26.0703 19.0078 27.0157 19.9492L31.1719 24.1054C31.9922 24.9257 33.2696 25.0741 34.2539 24.4648 36.9766 22.7812 39.9414 21.5546 43.0703 20.8164 44.2031 20.5468 45 19.5391 45 18.3789L45 12.5C45 11.1211 46.1211 9.99997 47.5 9.99997L52.5 9.99997C53.8789 9.99997 55 11.1211 55 12.5L55 18.3789C55 19.5391 55.7969 20.5469 56.9258 20.8125 60.0547 21.5508 63.0196 22.7813 65.7422 24.4609 66.7265 25.0702 68.0039 24.9218 68.8242 24.1015L72.9804 19.9453C73.9257 19 75.5702 19 76.5156 19.9453L80.0508 23.4805C81.0273 24.4571 81.0273 26.043 80.0508 27.0157L75.8946 31.1719C75.0743 31.9922 74.9258 33.2657 75.5352 34.2539 77.2188 36.9805 78.4454 39.9453 79.1836 43.0703 79.4531 44.2031 80.4609 45 81.6211 45L87.5 45C88.8789 45 90 46.1211 90 47.5Z" class="MsftOfcThm_Text2_Fill_v2" fill="#E42617"/></g></svg>