<svg width="133.333" height="133.333" viewBox="0 0 100 100" xmlns="http://www.w3.org/2000/svg" xmlns:xlink="http://www.w3.org/1999/xlink" overflow="hidden"><style>
.MsftOfcThm_Text2_Fill_v2 {
 fill:#E42617; 
}
</style>
<path d="M90.418 11.668C89.5821 10.8321 88.543 10.418 87.5 10.418L83.332 10.418 83.332 8.3321C83.332 7.7071 83.125 7.2891 82.707 6.8751L76.457 0.6251C76.0429 0.20713 75.625 0.0001 75 0.0001L31.25 0.0001C30.625 0.0001 30.207 0.20713 29.793 0.6251L23.543 6.8751C23.125 7.29307 22.918 7.70713 22.918 8.3321L22.918 10.4141 18.75 10.418C17.707 10.418 16.668 10.8321 15.832 11.668 15 12.5 14.582 13.543 14.582 14.5821L14.582 18.7501 10.4179 18.7501 10.4179 22.9181 18.7499 22.9181 18.7499 37.5001C18.7499 38.1251 18.9569 38.5431 19.3749 38.9571L24.9999 44.5821 24.9999 75.2071C19.1679 76.2501 14.5819 81.2501 14.5819 87.5001 14.5819 94.3751 20.2069 100 27.0819 100 33.9569 100 39.5819 94.3751 39.5819 87.5001 39.5819 81.2501 34.9999 76.2501 29.1639 75.2071L29.1678 43.7501C29.1678 43.1251 28.9608 42.7071 28.5428 42.2931L22.9178 36.6681 22.9178 22.9181 29.1678 22.9181 29.1678 18.7501 18.7498 18.7501 18.7498 14.5821 87.4998 14.5821 87.4998 18.7501 33.3318 18.7501 33.3318 22.9181 83.3318 22.9181 83.3318 89.5861C83.3318 91.2541 82.7068 92.9181 81.4568 93.9611 80.2068 95.0002 78.7498 95.8322 77.0818 95.8322L41.6678 95.8322 41.6678 100 77.0858 100C79.7928 100 82.5038 98.9572 84.3788 96.8752 86.2499 94.7932 87.4999 92.2932 87.4999 89.5822L87.4999 22.9182 89.5819 22.9182C90.8319 22.9182 91.6639 22.0862 91.6639 20.8362L91.6678 14.5823C91.6678 13.5432 91.2498 12.5003 90.4178 11.6682ZM35.418 87.5C35.418 92.082 31.668 95.832 27.086 95.832 22.504 95.832 18.754 92.082 18.754 87.5 18.754 82.918 22.504 79.168 27.086 79.168 31.668 79.168 35.418 82.918 35.418 87.5ZM27.0821 9.168 32.0821 4.168 74.1641 4.168 79.168 9.168 79.168 10.418 27.082 10.418ZM25.0001 85.418 29.1681 85.418 29.1681 89.586 25.0001 89.586ZM64.5821 47.918 68.1251 47.918C65.4181 43.961 61.0431 41.668 56.2501 41.668 48.1251 41.668 41.6681 48.125 41.6681 56.25 41.6681 64.375 48.1251 70.832 56.2501 70.832 64.3751 70.832 70.8321 64.375 70.8321 56.25L75.0001 56.25C75.0001 66.668 66.6681 75 56.2501 75 45.8321 75 37.5001 66.668 37.5001 56.25 37.5001 45.832 45.8321 37.5 56.2501 37.5 62.0821 37.5 67.2931 40.207 70.8321 44.375L70.8321 41.668 75.0001 41.668 75.0001 50C75.0001 51.25 74.1681 52.082 72.9181 52.082L64.5861 52.082ZM50.0001 56.25C50.0001 59.793 52.7071 62.5 56.2501 62.5L56.2501 66.668C50.4181 66.668 45.8321 62.086 45.8321 56.25 45.8321 50.418 50.4141 45.832 56.2501 45.832L56.2501 50C52.7071 50 50.0001 52.707 50.0001 56.25ZM45.8321 89.582 45.8321 85.414 50.0001 85.414 50.0001 89.582ZM54.168 85.4179 58.336 85.4179 58.336 89.5859 54.168 89.5859ZM62.5 89.582 62.5 85.414 66.668 85.414 66.668 89.582Z" class="MsftOfcThm_Text2_Fill_v2" fill="#E42617"/></svg>